<mxfile host="app.diagrams.net" modified="2023-03-25T20:20:06.155Z" agent="Mozilla/5.0 (Windows NT 10.0; Win64; x64) AppleWebKit/537.36 (KHTML, like Gecko) Chrome/111.0.0.0 Safari/537.36" etag="qbRcb11BkakbfCNfbZTP" version="21.1.1" type="device">
  <diagram id="C5RBs43oDa-KdzZeNtuy" name="Page-1">
    <mxGraphModel dx="1660" dy="930" grid="0" gridSize="10" guides="1" tooltips="1" connect="1" arrows="1" fold="1" page="1" pageScale="1" pageWidth="827" pageHeight="1169" math="0" shadow="0">
      <root>
        <mxCell id="WIyWlLk6GJQsqaUBKTNV-0" />
        <mxCell id="WIyWlLk6GJQsqaUBKTNV-1" parent="WIyWlLk6GJQsqaUBKTNV-0" />
        <mxCell id="wEltk9S-PoxrdF0Q-rvV-9" value="Seller" style="shape=umlFrame;whiteSpace=wrap;html=1;pointerEvents=0;width=80;height=20;" parent="WIyWlLk6GJQsqaUBKTNV-1" vertex="1">
          <mxGeometry x="720" y="220" width="520" height="600" as="geometry" />
        </mxCell>
        <mxCell id="wEltk9S-PoxrdF0Q-rvV-8" value="Customer" style="shape=umlFrame;whiteSpace=wrap;html=1;pointerEvents=0;width=80;height=20;" parent="WIyWlLk6GJQsqaUBKTNV-1" vertex="1">
          <mxGeometry x="20" y="220" width="350" height="600" as="geometry" />
        </mxCell>
        <mxCell id="wEltk9S-PoxrdF0Q-rvV-16" value="Order" style="shape=umlFrame;whiteSpace=wrap;html=1;pointerEvents=0;width=80;height=20;" parent="WIyWlLk6GJQsqaUBKTNV-1" vertex="1">
          <mxGeometry x="390" y="460" width="310" height="360" as="geometry" />
        </mxCell>
        <mxCell id="5-eGZLtxOwIWoKAD2tOT-32" style="edgeStyle=orthogonalEdgeStyle;rounded=0;orthogonalLoop=1;jettySize=auto;html=1;endArrow=none;endFill=0;startArrow=diamondThin;startFill=1;dashed=1;" parent="WIyWlLk6GJQsqaUBKTNV-1" source="5-eGZLtxOwIWoKAD2tOT-10" target="5-eGZLtxOwIWoKAD2tOT-14" edge="1">
          <mxGeometry relative="1" as="geometry">
            <Array as="points">
              <mxPoint x="195" y="169" />
            </Array>
          </mxGeometry>
        </mxCell>
        <mxCell id="5-eGZLtxOwIWoKAD2tOT-33" value="1...1" style="edgeLabel;html=1;align=center;verticalAlign=middle;resizable=0;points=[];" parent="5-eGZLtxOwIWoKAD2tOT-32" vertex="1" connectable="0">
          <mxGeometry x="0.3253" y="1" relative="1" as="geometry">
            <mxPoint x="-31" y="111" as="offset" />
          </mxGeometry>
        </mxCell>
        <mxCell id="5-eGZLtxOwIWoKAD2tOT-34" style="edgeStyle=orthogonalEdgeStyle;rounded=0;orthogonalLoop=1;jettySize=auto;html=1;endArrow=none;endFill=0;startArrow=diamondThin;startFill=1;dashed=1;" parent="WIyWlLk6GJQsqaUBKTNV-1" source="5-eGZLtxOwIWoKAD2tOT-10" target="5-eGZLtxOwIWoKAD2tOT-20" edge="1">
          <mxGeometry relative="1" as="geometry">
            <Array as="points">
              <mxPoint x="1000" y="151" />
            </Array>
          </mxGeometry>
        </mxCell>
        <mxCell id="5-eGZLtxOwIWoKAD2tOT-35" value="0...1" style="edgeLabel;html=1;align=center;verticalAlign=middle;resizable=0;points=[];" parent="5-eGZLtxOwIWoKAD2tOT-34" connectable="0" vertex="1">
          <mxGeometry x="0.5742" y="2" relative="1" as="geometry">
            <mxPoint x="12" y="98" as="offset" />
          </mxGeometry>
        </mxCell>
        <mxCell id="5-eGZLtxOwIWoKAD2tOT-36" style="edgeStyle=orthogonalEdgeStyle;rounded=0;orthogonalLoop=1;jettySize=auto;html=1;endArrow=none;endFill=0;startArrow=diamondThin;startFill=1;" parent="WIyWlLk6GJQsqaUBKTNV-1" source="5-eGZLtxOwIWoKAD2tOT-10" target="5-eGZLtxOwIWoKAD2tOT-17" edge="1">
          <mxGeometry relative="1" as="geometry">
            <Array as="points">
              <mxPoint x="550" y="90" />
              <mxPoint x="550" y="90" />
            </Array>
          </mxGeometry>
        </mxCell>
        <mxCell id="5-eGZLtxOwIWoKAD2tOT-37" value="0...1" style="edgeLabel;html=1;align=center;verticalAlign=middle;resizable=0;points=[];" parent="5-eGZLtxOwIWoKAD2tOT-36" vertex="1" connectable="0">
          <mxGeometry x="0.36" y="-1" relative="1" as="geometry">
            <mxPoint x="12" y="-1" as="offset" />
          </mxGeometry>
        </mxCell>
        <mxCell id="Q86aXCvyrEORFELIP6Jt-18" style="edgeStyle=orthogonalEdgeStyle;rounded=0;orthogonalLoop=1;jettySize=auto;html=1;endArrow=none;endFill=0;startArrow=diamondThin;startFill=1;" parent="WIyWlLk6GJQsqaUBKTNV-1" source="5-eGZLtxOwIWoKAD2tOT-10" target="Q86aXCvyrEORFELIP6Jt-17" edge="1">
          <mxGeometry relative="1" as="geometry">
            <Array as="points">
              <mxPoint x="364" y="147" />
            </Array>
          </mxGeometry>
        </mxCell>
        <mxCell id="Q86aXCvyrEORFELIP6Jt-19" value="0...n" style="edgeLabel;html=1;align=center;verticalAlign=middle;resizable=0;points=[];" parent="Q86aXCvyrEORFELIP6Jt-18" vertex="1" connectable="0">
          <mxGeometry x="-0.6608" relative="1" as="geometry">
            <mxPoint x="-84" y="-18" as="offset" />
          </mxGeometry>
        </mxCell>
        <mxCell id="5-eGZLtxOwIWoKAD2tOT-10" value="User" style="swimlane;fontStyle=1;align=center;verticalAlign=middle;childLayout=stackLayout;horizontal=1;startSize=29;horizontalStack=0;resizeParent=1;resizeParentMax=0;resizeLast=0;collapsible=0;marginBottom=0;html=1;" parent="WIyWlLk6GJQsqaUBKTNV-1" vertex="1">
          <mxGeometry x="485" y="130" width="120" height="60" as="geometry" />
        </mxCell>
        <mxCell id="5-eGZLtxOwIWoKAD2tOT-25" style="edgeStyle=orthogonalEdgeStyle;rounded=0;orthogonalLoop=1;jettySize=auto;html=1;endArrow=none;endFill=0;startArrow=diamondThin;startFill=1;" parent="WIyWlLk6GJQsqaUBKTNV-1" source="5-eGZLtxOwIWoKAD2tOT-14" target="5-eGZLtxOwIWoKAD2tOT-24" edge="1">
          <mxGeometry relative="1" as="geometry">
            <Array as="points">
              <mxPoint x="200" y="400" />
              <mxPoint x="200" y="400" />
            </Array>
          </mxGeometry>
        </mxCell>
        <mxCell id="5-eGZLtxOwIWoKAD2tOT-26" value="1...1" style="edgeLabel;html=1;align=center;verticalAlign=middle;resizable=0;points=[];" parent="5-eGZLtxOwIWoKAD2tOT-25" connectable="0" vertex="1">
          <mxGeometry x="0.6955" relative="1" as="geometry">
            <mxPoint x="13" y="4" as="offset" />
          </mxGeometry>
        </mxCell>
        <mxCell id="wEltk9S-PoxrdF0Q-rvV-28" style="edgeStyle=orthogonalEdgeStyle;rounded=0;orthogonalLoop=1;jettySize=auto;html=1;dashed=1;endArrow=none;endFill=0;startArrow=diamondThin;startFill=1;" parent="WIyWlLk6GJQsqaUBKTNV-1" source="5-eGZLtxOwIWoKAD2tOT-10" target="wEltk9S-PoxrdF0Q-rvV-17" edge="1">
          <mxGeometry relative="1" as="geometry">
            <Array as="points">
              <mxPoint x="545" y="300" />
            </Array>
          </mxGeometry>
        </mxCell>
        <mxCell id="wEltk9S-PoxrdF0Q-rvV-29" value="0...n" style="edgeLabel;html=1;align=center;verticalAlign=middle;resizable=0;points=[];" parent="wEltk9S-PoxrdF0Q-rvV-28" vertex="1" connectable="0">
          <mxGeometry x="0.909" y="3" relative="1" as="geometry">
            <mxPoint x="-3" y="-7" as="offset" />
          </mxGeometry>
        </mxCell>
        <mxCell id="5-eGZLtxOwIWoKAD2tOT-14" value="Customer" style="swimlane;fontStyle=1;align=center;verticalAlign=middle;childLayout=stackLayout;horizontal=1;startSize=29;horizontalStack=0;resizeParent=1;resizeParentMax=0;resizeLast=0;collapsible=0;marginBottom=0;html=1;" parent="WIyWlLk6GJQsqaUBKTNV-1" vertex="1">
          <mxGeometry x="155" y="290" width="80" height="60" as="geometry" />
        </mxCell>
        <mxCell id="5-eGZLtxOwIWoKAD2tOT-17" value="Admin" style="swimlane;fontStyle=1;align=center;verticalAlign=middle;childLayout=stackLayout;horizontal=1;startSize=29;horizontalStack=0;resizeParent=1;resizeParentMax=0;resizeLast=0;collapsible=0;marginBottom=0;html=1;" parent="WIyWlLk6GJQsqaUBKTNV-1" vertex="1">
          <mxGeometry x="505" y="40" width="80" height="60" as="geometry" />
        </mxCell>
        <mxCell id="5-eGZLtxOwIWoKAD2tOT-20" value="Seller" style="swimlane;fontStyle=1;align=center;verticalAlign=middle;childLayout=stackLayout;horizontal=1;startSize=29;horizontalStack=0;resizeParent=1;resizeParentMax=0;resizeLast=0;collapsible=0;marginBottom=0;html=1;" parent="WIyWlLk6GJQsqaUBKTNV-1" vertex="1">
          <mxGeometry x="960" y="270" width="90" height="60" as="geometry" />
        </mxCell>
        <mxCell id="9OOohbVVuucm2zmM9hxW-15" style="edgeStyle=orthogonalEdgeStyle;rounded=0;orthogonalLoop=1;jettySize=auto;html=1;startArrow=diamondThin;startFill=1;endArrow=none;endFill=0;" parent="WIyWlLk6GJQsqaUBKTNV-1" source="5-eGZLtxOwIWoKAD2tOT-24" target="9OOohbVVuucm2zmM9hxW-10" edge="1">
          <mxGeometry relative="1" as="geometry">
            <Array as="points">
              <mxPoint x="200" y="510" />
              <mxPoint x="200" y="510" />
            </Array>
          </mxGeometry>
        </mxCell>
        <mxCell id="9OOohbVVuucm2zmM9hxW-16" value="0...n" style="edgeLabel;html=1;align=center;verticalAlign=middle;resizable=0;points=[];" parent="9OOohbVVuucm2zmM9hxW-15" connectable="0" vertex="1">
          <mxGeometry x="0.4324" y="1" relative="1" as="geometry">
            <mxPoint x="11" y="1" as="offset" />
          </mxGeometry>
        </mxCell>
        <mxCell id="5-eGZLtxOwIWoKAD2tOT-24" value="ShoppingCart" style="swimlane;fontStyle=1;align=center;verticalAlign=middle;childLayout=stackLayout;horizontal=1;startSize=29;horizontalStack=0;resizeParent=1;resizeParentMax=0;resizeLast=0;collapsible=0;marginBottom=0;html=1;" parent="WIyWlLk6GJQsqaUBKTNV-1" vertex="1">
          <mxGeometry x="110" y="440" width="210" height="55" as="geometry" />
        </mxCell>
        <mxCell id="3amuEZa6ZCUIwLxiYFz3-47" value="- shopProducts: Map&lt;int, Product[]&gt;" style="text;strokeColor=none;fillColor=none;align=left;verticalAlign=top;spacingLeft=4;spacingRight=4;overflow=hidden;rotatable=0;points=[[0,0.5],[1,0.5]];portConstraint=eastwest;" parent="5-eGZLtxOwIWoKAD2tOT-24" vertex="1">
          <mxGeometry y="29" width="210" height="26" as="geometry" />
        </mxCell>
        <mxCell id="3amuEZa6ZCUIwLxiYFz3-38" style="edgeStyle=orthogonalEdgeStyle;rounded=0;orthogonalLoop=1;jettySize=auto;html=1;endArrow=none;endFill=0;startArrow=diamondThin;startFill=0;" parent="WIyWlLk6GJQsqaUBKTNV-1" source="9OOohbVVuucm2zmM9hxW-10" target="9OOohbVVuucm2zmM9hxW-12" edge="1">
          <mxGeometry relative="1" as="geometry">
            <Array as="points">
              <mxPoint x="200" y="630" />
              <mxPoint x="200" y="630" />
            </Array>
            <mxPoint x="620.0344827586207" y="617" as="targetPoint" />
          </mxGeometry>
        </mxCell>
        <mxCell id="9OOohbVVuucm2zmM9hxW-14" value="0...n" style="edgeLabel;html=1;align=center;verticalAlign=middle;resizable=0;points=[];" parent="3amuEZa6ZCUIwLxiYFz3-38" connectable="0" vertex="1">
          <mxGeometry x="0.6727" y="-1" relative="1" as="geometry">
            <mxPoint x="14" y="-1" as="offset" />
          </mxGeometry>
        </mxCell>
        <mxCell id="9OOohbVVuucm2zmM9hxW-20" style="edgeStyle=orthogonalEdgeStyle;rounded=0;orthogonalLoop=1;jettySize=auto;html=1;startArrow=diamondThin;startFill=1;endArrow=none;endFill=0;" parent="WIyWlLk6GJQsqaUBKTNV-1" source="5-eGZLtxOwIWoKAD2tOT-28" target="9OOohbVVuucm2zmM9hxW-17" edge="1">
          <mxGeometry relative="1" as="geometry" />
        </mxCell>
        <mxCell id="9OOohbVVuucm2zmM9hxW-21" value="1...n" style="edgeLabel;html=1;align=center;verticalAlign=middle;resizable=0;points=[];" parent="9OOohbVVuucm2zmM9hxW-20" connectable="0" vertex="1">
          <mxGeometry x="0.6783" y="-2" relative="1" as="geometry">
            <mxPoint x="-7" y="7" as="offset" />
          </mxGeometry>
        </mxCell>
        <mxCell id="5-eGZLtxOwIWoKAD2tOT-28" value="Order" style="swimlane;fontStyle=1;align=center;verticalAlign=middle;childLayout=stackLayout;horizontal=1;startSize=29;horizontalStack=0;resizeParent=1;resizeParentMax=0;resizeLast=0;collapsible=0;marginBottom=0;html=1;" parent="WIyWlLk6GJQsqaUBKTNV-1" vertex="1">
          <mxGeometry x="414" y="520" width="106.5" height="55" as="geometry" />
        </mxCell>
        <mxCell id="3amuEZa6ZCUIwLxiYFz3-36" style="edgeStyle=orthogonalEdgeStyle;rounded=0;orthogonalLoop=1;jettySize=auto;html=1;endArrow=none;endFill=0;startArrow=diamondThin;startFill=1;" parent="WIyWlLk6GJQsqaUBKTNV-1" source="5-eGZLtxOwIWoKAD2tOT-38" target="3amuEZa6ZCUIwLxiYFz3-34" edge="1">
          <mxGeometry relative="1" as="geometry">
            <Array as="points">
              <mxPoint x="890" y="520" />
              <mxPoint x="890" y="520" />
            </Array>
          </mxGeometry>
        </mxCell>
        <mxCell id="3amuEZa6ZCUIwLxiYFz3-37" value="0...n" style="edgeLabel;html=1;align=center;verticalAlign=middle;resizable=0;points=[];" parent="3amuEZa6ZCUIwLxiYFz3-36" vertex="1" connectable="0">
          <mxGeometry x="0.8151" relative="1" as="geometry">
            <mxPoint x="8" y="9" as="offset" />
          </mxGeometry>
        </mxCell>
        <mxCell id="wEltk9S-PoxrdF0Q-rvV-3" style="edgeStyle=orthogonalEdgeStyle;rounded=0;orthogonalLoop=1;jettySize=auto;html=1;endArrow=none;endFill=0;startArrow=diamondThin;startFill=1;" parent="WIyWlLk6GJQsqaUBKTNV-1" source="5-eGZLtxOwIWoKAD2tOT-38" target="wEltk9S-PoxrdF0Q-rvV-2" edge="1">
          <mxGeometry relative="1" as="geometry" />
        </mxCell>
        <mxCell id="wEltk9S-PoxrdF0Q-rvV-4" value="0...n" style="edgeLabel;html=1;align=center;verticalAlign=middle;resizable=0;points=[];" parent="wEltk9S-PoxrdF0Q-rvV-3" vertex="1" connectable="0">
          <mxGeometry x="-0.7959" y="1" relative="1" as="geometry">
            <mxPoint x="26" y="-9" as="offset" />
          </mxGeometry>
        </mxCell>
        <mxCell id="wEltk9S-PoxrdF0Q-rvV-33" style="edgeStyle=orthogonalEdgeStyle;rounded=0;orthogonalLoop=1;jettySize=auto;html=1;endArrow=none;endFill=0;startArrow=diamondThin;startFill=1;" parent="WIyWlLk6GJQsqaUBKTNV-1" source="5-eGZLtxOwIWoKAD2tOT-38" target="wEltk9S-PoxrdF0Q-rvV-32" edge="1">
          <mxGeometry relative="1" as="geometry">
            <Array as="points">
              <mxPoint x="950" y="590" />
              <mxPoint x="950" y="590" />
            </Array>
          </mxGeometry>
        </mxCell>
        <mxCell id="wEltk9S-PoxrdF0Q-rvV-34" value="0...n" style="edgeLabel;html=1;align=center;verticalAlign=middle;resizable=0;points=[];" parent="wEltk9S-PoxrdF0Q-rvV-33" vertex="1" connectable="0">
          <mxGeometry x="0.89" y="1" relative="1" as="geometry">
            <mxPoint x="19" y="-6" as="offset" />
          </mxGeometry>
        </mxCell>
        <mxCell id="5-eGZLtxOwIWoKAD2tOT-38" value="Shop" style="swimlane;fontStyle=1;align=center;verticalAlign=middle;childLayout=stackLayout;horizontal=1;startSize=29;horizontalStack=0;resizeParent=1;resizeParentMax=0;resizeLast=0;collapsible=0;marginBottom=0;html=1;" parent="WIyWlLk6GJQsqaUBKTNV-1" vertex="1">
          <mxGeometry x="925" y="490" width="160" height="55" as="geometry" />
        </mxCell>
        <mxCell id="5-eGZLtxOwIWoKAD2tOT-46" value="- adminOwner: ShopOwner" style="text;strokeColor=none;fillColor=none;align=left;verticalAlign=top;spacingLeft=4;spacingRight=4;overflow=hidden;rotatable=0;points=[[0,0.5],[1,0.5]];portConstraint=eastwest;" parent="5-eGZLtxOwIWoKAD2tOT-38" vertex="1">
          <mxGeometry y="29" width="160" height="26" as="geometry" />
        </mxCell>
        <mxCell id="9OOohbVVuucm2zmM9hxW-45" style="edgeStyle=orthogonalEdgeStyle;rounded=0;orthogonalLoop=1;jettySize=auto;html=1;startArrow=diamondThin;startFill=0;endArrow=none;endFill=0;" parent="WIyWlLk6GJQsqaUBKTNV-1" source="3amuEZa6ZCUIwLxiYFz3-3" target="5-eGZLtxOwIWoKAD2tOT-20" edge="1">
          <mxGeometry relative="1" as="geometry">
            <Array as="points">
              <mxPoint x="1005" y="350" />
              <mxPoint x="1005" y="350" />
            </Array>
          </mxGeometry>
        </mxCell>
        <mxCell id="Q86aXCvyrEORFELIP6Jt-0" value="1...1" style="edgeLabel;html=1;align=center;verticalAlign=middle;resizable=0;points=[];" parent="9OOohbVVuucm2zmM9hxW-45" vertex="1" connectable="0">
          <mxGeometry x="0.7261" relative="1" as="geometry">
            <mxPoint x="14" y="5" as="offset" />
          </mxGeometry>
        </mxCell>
        <mxCell id="3amuEZa6ZCUIwLxiYFz3-3" value="ShopHandler" style="swimlane;fontStyle=1;align=center;verticalAlign=middle;childLayout=stackLayout;horizontal=1;startSize=29;horizontalStack=0;resizeParent=1;resizeParentMax=0;resizeLast=0;collapsible=0;marginBottom=0;html=1;whiteSpace=wrap;" parent="WIyWlLk6GJQsqaUBKTNV-1" vertex="1">
          <mxGeometry x="903" y="367" width="179" height="81" as="geometry" />
        </mxCell>
        <mxCell id="3amuEZa6ZCUIwLxiYFz3-26" value="- relatedSeller: Seller" style="text;strokeColor=none;fillColor=none;align=left;verticalAlign=top;spacingLeft=4;spacingRight=4;overflow=hidden;rotatable=0;points=[[0,0.5],[1,0.5]];portConstraint=eastwest;" parent="3amuEZa6ZCUIwLxiYFz3-3" vertex="1">
          <mxGeometry y="29" width="179" height="26" as="geometry" />
        </mxCell>
        <mxCell id="3amuEZa6ZCUIwLxiYFz3-25" value="- subHandlers: ShopHandler[]" style="text;strokeColor=none;fillColor=none;align=left;verticalAlign=top;spacingLeft=4;spacingRight=4;overflow=hidden;rotatable=0;points=[[0,0.5],[1,0.5]];portConstraint=eastwest;" parent="3amuEZa6ZCUIwLxiYFz3-3" vertex="1">
          <mxGeometry y="55" width="179" height="26" as="geometry" />
        </mxCell>
        <mxCell id="3amuEZa6ZCUIwLxiYFz3-19" style="edgeStyle=orthogonalEdgeStyle;rounded=0;orthogonalLoop=1;jettySize=auto;html=1;endArrow=none;endFill=0;startArrow=diamondThin;startFill=1;" parent="WIyWlLk6GJQsqaUBKTNV-1" source="5-eGZLtxOwIWoKAD2tOT-38" target="3amuEZa6ZCUIwLxiYFz3-3" edge="1">
          <mxGeometry relative="1" as="geometry">
            <Array as="points">
              <mxPoint x="1010" y="450" />
              <mxPoint x="1010" y="450" />
            </Array>
          </mxGeometry>
        </mxCell>
        <mxCell id="3amuEZa6ZCUIwLxiYFz3-20" value="1...1" style="edgeLabel;html=1;align=center;verticalAlign=middle;resizable=0;points=[];" parent="3amuEZa6ZCUIwLxiYFz3-19" connectable="0" vertex="1">
          <mxGeometry x="-0.6989" relative="1" as="geometry">
            <mxPoint x="12" y="-4" as="offset" />
          </mxGeometry>
        </mxCell>
        <mxCell id="3amuEZa6ZCUIwLxiYFz3-40" style="edgeStyle=orthogonalEdgeStyle;rounded=0;orthogonalLoop=1;jettySize=auto;html=1;endArrow=none;endFill=0;startArrow=diamondThin;startFill=0;dashed=1;" parent="WIyWlLk6GJQsqaUBKTNV-1" source="9OOohbVVuucm2zmM9hxW-12" target="3amuEZa6ZCUIwLxiYFz3-34" edge="1">
          <mxGeometry relative="1" as="geometry">
            <mxPoint x="200" y="670" as="sourcePoint" />
            <Array as="points">
              <mxPoint x="220" y="740" />
              <mxPoint x="770" y="740" />
            </Array>
          </mxGeometry>
        </mxCell>
        <mxCell id="Q86aXCvyrEORFELIP6Jt-33" value="1...1" style="edgeLabel;html=1;align=center;verticalAlign=middle;resizable=0;points=[];" parent="3amuEZa6ZCUIwLxiYFz3-40" vertex="1" connectable="0">
          <mxGeometry x="-0.9459" y="-1" relative="1" as="geometry">
            <mxPoint x="549" y="-139" as="offset" />
          </mxGeometry>
        </mxCell>
        <mxCell id="9OOohbVVuucm2zmM9hxW-25" style="edgeStyle=orthogonalEdgeStyle;rounded=0;orthogonalLoop=1;jettySize=auto;html=1;startArrow=diamondThin;startFill=1;endArrow=none;endFill=0;" parent="WIyWlLk6GJQsqaUBKTNV-1" source="3amuEZa6ZCUIwLxiYFz3-34" target="9OOohbVVuucm2zmM9hxW-24" edge="1">
          <mxGeometry relative="1" as="geometry">
            <Array as="points" />
          </mxGeometry>
        </mxCell>
        <mxCell id="9OOohbVVuucm2zmM9hxW-26" value="0...n" style="edgeLabel;html=1;align=center;verticalAlign=middle;resizable=0;points=[];" parent="9OOohbVVuucm2zmM9hxW-25" connectable="0" vertex="1">
          <mxGeometry x="0.737" relative="1" as="geometry">
            <mxPoint x="-1" y="5" as="offset" />
          </mxGeometry>
        </mxCell>
        <mxCell id="3amuEZa6ZCUIwLxiYFz3-34" value="Product" style="swimlane;fontStyle=1;align=center;verticalAlign=middle;childLayout=stackLayout;horizontal=1;startSize=29;horizontalStack=0;resizeParent=1;resizeParentMax=0;resizeLast=0;collapsible=0;marginBottom=0;html=1;" parent="WIyWlLk6GJQsqaUBKTNV-1" vertex="1">
          <mxGeometry x="750" y="490" width="100" height="60" as="geometry" />
        </mxCell>
        <mxCell id="3amuEZa6ZCUIwLxiYFz3-43" value="ExternalServiceContact" style="swimlane;fontStyle=1;align=center;verticalAlign=middle;childLayout=stackLayout;horizontal=1;startSize=29;horizontalStack=0;resizeParent=1;resizeParentMax=0;resizeLast=0;collapsible=0;marginBottom=0;html=1;" parent="WIyWlLk6GJQsqaUBKTNV-1" vertex="1">
          <mxGeometry x="410" y="677" width="139" height="54" as="geometry" />
        </mxCell>
        <mxCell id="wEltk9S-PoxrdF0Q-rvV-2" value="DiscountRule?" style="swimlane;fontStyle=1;align=center;verticalAlign=middle;childLayout=stackLayout;horizontal=1;startSize=29;horizontalStack=0;resizeParent=1;resizeParentMax=0;resizeLast=0;collapsible=0;marginBottom=0;html=1;" parent="WIyWlLk6GJQsqaUBKTNV-1" vertex="1">
          <mxGeometry x="1130" y="490" width="100" height="55" as="geometry" />
        </mxCell>
        <mxCell id="wEltk9S-PoxrdF0Q-rvV-10" value="User" style="shape=umlFrame;whiteSpace=wrap;html=1;pointerEvents=0;width=80;height=20;" parent="WIyWlLk6GJQsqaUBKTNV-1" vertex="1">
          <mxGeometry x="20" y="20" width="1220" height="180" as="geometry" />
        </mxCell>
        <mxCell id="wEltk9S-PoxrdF0Q-rvV-12" value="Notification" style="shape=umlFrame;whiteSpace=wrap;html=1;pointerEvents=0;width=80;height=20;" parent="WIyWlLk6GJQsqaUBKTNV-1" vertex="1">
          <mxGeometry x="390" y="220" width="310" height="220" as="geometry" />
        </mxCell>
        <mxCell id="wEltk9S-PoxrdF0Q-rvV-14" value="" style="edgeStyle=orthogonalEdgeStyle;rounded=0;orthogonalLoop=1;jettySize=auto;html=1;endArrow=none;endFill=0;startArrow=diamondThin;startFill=1;dashed=1;" parent="WIyWlLk6GJQsqaUBKTNV-1" source="5-eGZLtxOwIWoKAD2tOT-14" target="5-eGZLtxOwIWoKAD2tOT-28" edge="1">
          <mxGeometry relative="1" as="geometry">
            <Array as="points">
              <mxPoint x="340" y="340" />
              <mxPoint x="340" y="550" />
            </Array>
            <mxPoint x="170" y="410" as="sourcePoint" />
            <mxPoint x="130" y="805" as="targetPoint" />
          </mxGeometry>
        </mxCell>
        <mxCell id="9OOohbVVuucm2zmM9hxW-19" value="0...n" style="edgeLabel;html=1;align=center;verticalAlign=middle;resizable=0;points=[];" parent="wEltk9S-PoxrdF0Q-rvV-14" connectable="0" vertex="1">
          <mxGeometry x="0.9258" relative="1" as="geometry">
            <mxPoint x="2" y="-8" as="offset" />
          </mxGeometry>
        </mxCell>
        <mxCell id="wEltk9S-PoxrdF0Q-rvV-25" style="edgeStyle=orthogonalEdgeStyle;rounded=0;orthogonalLoop=1;jettySize=auto;html=1;startArrow=diamondThin;startFill=0;endArrow=none;endFill=0;" parent="WIyWlLk6GJQsqaUBKTNV-1" source="wEltk9S-PoxrdF0Q-rvV-17" target="wEltk9S-PoxrdF0Q-rvV-23" edge="1">
          <mxGeometry relative="1" as="geometry" />
        </mxCell>
        <mxCell id="wEltk9S-PoxrdF0Q-rvV-26" value="1...1" style="edgeLabel;html=1;align=center;verticalAlign=middle;resizable=0;points=[];" parent="wEltk9S-PoxrdF0Q-rvV-25" vertex="1" connectable="0">
          <mxGeometry x="0.7122" y="1" relative="1" as="geometry">
            <mxPoint x="12" y="-3" as="offset" />
          </mxGeometry>
        </mxCell>
        <mxCell id="wEltk9S-PoxrdF0Q-rvV-17" value="Notification" style="swimlane;fontStyle=1;align=center;verticalAlign=middle;childLayout=stackLayout;horizontal=1;startSize=20;horizontalStack=0;resizeParent=1;resizeParentMax=0;resizeLast=0;collapsible=0;marginBottom=0;html=1;" parent="WIyWlLk6GJQsqaUBKTNV-1" vertex="1">
          <mxGeometry x="480" y="280" width="120" height="55" as="geometry" />
        </mxCell>
        <mxCell id="wEltk9S-PoxrdF0Q-rvV-23" value="NotificationType" style="swimlane;fontStyle=1;align=center;verticalAlign=middle;childLayout=stackLayout;horizontal=1;startSize=29;horizontalStack=0;resizeParent=1;resizeParentMax=0;resizeLast=0;collapsible=0;marginBottom=0;html=1;" parent="WIyWlLk6GJQsqaUBKTNV-1" vertex="1">
          <mxGeometry x="480" y="374.5" width="120" height="55" as="geometry" />
        </mxCell>
        <mxCell id="9OOohbVVuucm2zmM9hxW-42" style="edgeStyle=orthogonalEdgeStyle;rounded=0;orthogonalLoop=1;jettySize=auto;html=1;startArrow=diamondThin;startFill=0;endArrow=none;endFill=0;" parent="WIyWlLk6GJQsqaUBKTNV-1" source="wEltk9S-PoxrdF0Q-rvV-32" target="3amuEZa6ZCUIwLxiYFz3-34" edge="1">
          <mxGeometry relative="1" as="geometry">
            <Array as="points">
              <mxPoint x="930" y="680" />
              <mxPoint x="840" y="680" />
            </Array>
          </mxGeometry>
        </mxCell>
        <mxCell id="L2OGs5nIe2zohlXT7zx_-5" value="1...1" style="edgeLabel;html=1;align=center;verticalAlign=middle;resizable=0;points=[];" parent="9OOohbVVuucm2zmM9hxW-42" connectable="0" vertex="1">
          <mxGeometry x="0.8278" y="-1" relative="1" as="geometry">
            <mxPoint x="-2" y="-10" as="offset" />
          </mxGeometry>
        </mxCell>
        <mxCell id="wEltk9S-PoxrdF0Q-rvV-32" value="Auction" style="swimlane;fontStyle=1;align=center;verticalAlign=middle;childLayout=stackLayout;horizontal=1;startSize=29;horizontalStack=0;resizeParent=1;resizeParentMax=0;resizeLast=0;collapsible=0;marginBottom=0;html=1;" parent="WIyWlLk6GJQsqaUBKTNV-1" vertex="1">
          <mxGeometry x="900" y="600" width="100" height="60" as="geometry" />
        </mxCell>
        <mxCell id="9OOohbVVuucm2zmM9hxW-10" value="ShoppingBasket" style="swimlane;fontStyle=1;align=center;verticalAlign=middle;childLayout=stackLayout;horizontal=1;startSize=29;horizontalStack=0;resizeParent=1;resizeParentMax=0;resizeLast=0;collapsible=0;marginBottom=0;html=1;" parent="WIyWlLk6GJQsqaUBKTNV-1" vertex="1">
          <mxGeometry x="110" y="529" width="210" height="55" as="geometry" />
        </mxCell>
        <mxCell id="9OOohbVVuucm2zmM9hxW-12" value="ShoppingItem" style="swimlane;fontStyle=1;align=center;verticalAlign=middle;childLayout=stackLayout;horizontal=1;startSize=29;horizontalStack=0;resizeParent=1;resizeParentMax=0;resizeLast=0;collapsible=0;marginBottom=0;html=1;" parent="WIyWlLk6GJQsqaUBKTNV-1" vertex="1">
          <mxGeometry x="170" y="617" width="100" height="60" as="geometry" />
        </mxCell>
        <mxCell id="9OOohbVVuucm2zmM9hxW-22" style="edgeStyle=orthogonalEdgeStyle;rounded=0;orthogonalLoop=1;jettySize=auto;html=1;startArrow=diamondThin;startFill=1;endArrow=none;endFill=0;" parent="WIyWlLk6GJQsqaUBKTNV-1" source="9OOohbVVuucm2zmM9hxW-17" target="9OOohbVVuucm2zmM9hxW-18" edge="1">
          <mxGeometry relative="1" as="geometry" />
        </mxCell>
        <mxCell id="9OOohbVVuucm2zmM9hxW-23" value="1..n" style="edgeLabel;html=1;align=center;verticalAlign=middle;resizable=0;points=[];" parent="9OOohbVVuucm2zmM9hxW-22" connectable="0" vertex="1">
          <mxGeometry x="0.6839" y="1" relative="1" as="geometry">
            <mxPoint x="11" y="-1" as="offset" />
          </mxGeometry>
        </mxCell>
        <mxCell id="9OOohbVVuucm2zmM9hxW-17" value="OrderBasket" style="swimlane;fontStyle=1;align=center;verticalAlign=middle;childLayout=stackLayout;horizontal=1;startSize=29;horizontalStack=0;resizeParent=1;resizeParentMax=0;resizeLast=0;collapsible=0;marginBottom=0;html=1;" parent="WIyWlLk6GJQsqaUBKTNV-1" vertex="1">
          <mxGeometry x="560" y="520" width="100" height="55" as="geometry" />
        </mxCell>
        <mxCell id="9OOohbVVuucm2zmM9hxW-18" value="OrderItem" style="swimlane;fontStyle=1;align=center;verticalAlign=middle;childLayout=stackLayout;horizontal=1;startSize=29;horizontalStack=0;resizeParent=1;resizeParentMax=0;resizeLast=0;collapsible=0;marginBottom=0;html=1;" parent="WIyWlLk6GJQsqaUBKTNV-1" vertex="1">
          <mxGeometry x="560" y="620" width="100" height="60" as="geometry" />
        </mxCell>
        <mxCell id="9OOohbVVuucm2zmM9hxW-27" style="edgeStyle=orthogonalEdgeStyle;rounded=0;orthogonalLoop=1;jettySize=auto;html=1;startArrow=diamondThin;startFill=0;endArrow=none;endFill=0;dashed=1;" parent="WIyWlLk6GJQsqaUBKTNV-1" source="9OOohbVVuucm2zmM9hxW-24" target="5-eGZLtxOwIWoKAD2tOT-14" edge="1">
          <mxGeometry relative="1" as="geometry">
            <Array as="points">
              <mxPoint x="730" y="410" />
              <mxPoint x="730" y="450" />
              <mxPoint x="381" y="450" />
              <mxPoint x="381" y="310" />
            </Array>
          </mxGeometry>
        </mxCell>
        <mxCell id="9OOohbVVuucm2zmM9hxW-28" value="1...1" style="edgeLabel;html=1;align=center;verticalAlign=middle;resizable=0;points=[];" parent="9OOohbVVuucm2zmM9hxW-27" connectable="0" vertex="1">
          <mxGeometry x="0.9755" y="-3" relative="1" as="geometry">
            <mxPoint x="2" y="11" as="offset" />
          </mxGeometry>
        </mxCell>
        <mxCell id="Q86aXCvyrEORFELIP6Jt-24" style="edgeStyle=orthogonalEdgeStyle;rounded=0;orthogonalLoop=1;jettySize=auto;html=1;endArrow=none;endFill=0;startArrow=diamondThin;startFill=1;" parent="WIyWlLk6GJQsqaUBKTNV-1" source="9OOohbVVuucm2zmM9hxW-24" target="Q86aXCvyrEORFELIP6Jt-21" edge="1">
          <mxGeometry relative="1" as="geometry">
            <mxPoint x="838" y="357" as="targetPoint" />
            <Array as="points">
              <mxPoint x="800" y="354" />
              <mxPoint x="800" y="354" />
            </Array>
          </mxGeometry>
        </mxCell>
        <mxCell id="Q86aXCvyrEORFELIP6Jt-25" value="0...n" style="edgeLabel;html=1;align=center;verticalAlign=middle;resizable=0;points=[];" parent="Q86aXCvyrEORFELIP6Jt-24" vertex="1" connectable="0">
          <mxGeometry x="-0.3395" y="1" relative="1" as="geometry">
            <mxPoint x="13" y="-13" as="offset" />
          </mxGeometry>
        </mxCell>
        <mxCell id="9OOohbVVuucm2zmM9hxW-24" value="Review" style="swimlane;fontStyle=1;align=center;verticalAlign=middle;childLayout=stackLayout;horizontal=1;startSize=29;horizontalStack=0;resizeParent=1;resizeParentMax=0;resizeLast=0;collapsible=0;marginBottom=0;html=1;" parent="WIyWlLk6GJQsqaUBKTNV-1" vertex="1">
          <mxGeometry x="750" y="380" width="100" height="60" as="geometry" />
        </mxCell>
        <mxCell id="9OOohbVVuucm2zmM9hxW-30" style="edgeStyle=orthogonalEdgeStyle;rounded=0;orthogonalLoop=1;jettySize=auto;html=1;dashed=1;startArrow=diamondThin;startFill=0;endArrow=none;endFill=0;" parent="WIyWlLk6GJQsqaUBKTNV-1" source="9OOohbVVuucm2zmM9hxW-29" target="5-eGZLtxOwIWoKAD2tOT-14" edge="1">
          <mxGeometry relative="1" as="geometry">
            <Array as="points">
              <mxPoint x="80" y="770" />
              <mxPoint x="80" y="340" />
            </Array>
          </mxGeometry>
        </mxCell>
        <mxCell id="9OOohbVVuucm2zmM9hxW-41" value="1...1" style="edgeLabel;html=1;align=center;verticalAlign=middle;resizable=0;points=[];" parent="9OOohbVVuucm2zmM9hxW-30" connectable="0" vertex="1">
          <mxGeometry x="0.9616" y="3" relative="1" as="geometry">
            <mxPoint x="12" y="-7" as="offset" />
          </mxGeometry>
        </mxCell>
        <mxCell id="9OOohbVVuucm2zmM9hxW-33" style="edgeStyle=orthogonalEdgeStyle;rounded=0;orthogonalLoop=1;jettySize=auto;html=1;dashed=1;startArrow=diamondThin;startFill=0;endArrow=none;endFill=0;" parent="WIyWlLk6GJQsqaUBKTNV-1" source="9OOohbVVuucm2zmM9hxW-29" target="wEltk9S-PoxrdF0Q-rvV-32" edge="1">
          <mxGeometry relative="1" as="geometry" />
        </mxCell>
        <mxCell id="Q86aXCvyrEORFELIP6Jt-35" value="0...n" style="edgeLabel;html=1;align=center;verticalAlign=middle;resizable=0;points=[];" parent="9OOohbVVuucm2zmM9hxW-33" vertex="1" connectable="0">
          <mxGeometry x="0.8107" y="1" relative="1" as="geometry">
            <mxPoint x="13" as="offset" />
          </mxGeometry>
        </mxCell>
        <mxCell id="9OOohbVVuucm2zmM9hxW-29" value="AuctionBid" style="swimlane;fontStyle=1;align=center;verticalAlign=middle;childLayout=stackLayout;horizontal=1;startSize=29;horizontalStack=0;resizeParent=1;resizeParentMax=0;resizeLast=0;collapsible=0;marginBottom=0;html=1;" parent="WIyWlLk6GJQsqaUBKTNV-1" vertex="1">
          <mxGeometry x="900" y="730" width="100" height="60" as="geometry" />
        </mxCell>
        <mxCell id="9OOohbVVuucm2zmM9hxW-36" style="edgeStyle=orthogonalEdgeStyle;rounded=0;orthogonalLoop=1;jettySize=auto;html=1;startArrow=none;startFill=0;endArrow=diamondThin;endFill=1;" parent="WIyWlLk6GJQsqaUBKTNV-1" source="9OOohbVVuucm2zmM9hxW-34" target="5-eGZLtxOwIWoKAD2tOT-38" edge="1">
          <mxGeometry relative="1" as="geometry">
            <Array as="points">
              <mxPoint x="1070" y="590" />
              <mxPoint x="1070" y="590" />
            </Array>
          </mxGeometry>
        </mxCell>
        <mxCell id="L2OGs5nIe2zohlXT7zx_-6" value="0...n" style="edgeLabel;html=1;align=center;verticalAlign=middle;resizable=0;points=[];" parent="9OOohbVVuucm2zmM9hxW-36" connectable="0" vertex="1">
          <mxGeometry x="-0.7818" relative="1" as="geometry">
            <mxPoint x="13" y="-2" as="offset" />
          </mxGeometry>
        </mxCell>
        <mxCell id="9OOohbVVuucm2zmM9hxW-43" style="edgeStyle=orthogonalEdgeStyle;rounded=0;orthogonalLoop=1;jettySize=auto;html=1;startArrow=diamondThin;startFill=0;endArrow=none;endFill=0;" parent="WIyWlLk6GJQsqaUBKTNV-1" source="9OOohbVVuucm2zmM9hxW-34" target="3amuEZa6ZCUIwLxiYFz3-34" edge="1">
          <mxGeometry relative="1" as="geometry">
            <Array as="points">
              <mxPoint x="1070" y="700" />
              <mxPoint x="800" y="700" />
            </Array>
          </mxGeometry>
        </mxCell>
        <mxCell id="L2OGs5nIe2zohlXT7zx_-1" value="1...1" style="edgeLabel;html=1;align=center;verticalAlign=middle;resizable=0;points=[];" parent="9OOohbVVuucm2zmM9hxW-43" connectable="0" vertex="1">
          <mxGeometry x="0.9584" y="-1" relative="1" as="geometry">
            <mxPoint as="offset" />
          </mxGeometry>
        </mxCell>
        <mxCell id="9OOohbVVuucm2zmM9hxW-34" value="Raffle" style="swimlane;fontStyle=1;align=center;verticalAlign=middle;childLayout=stackLayout;horizontal=1;startSize=29;horizontalStack=0;resizeParent=1;resizeParentMax=0;resizeLast=0;collapsible=0;marginBottom=0;html=1;" parent="WIyWlLk6GJQsqaUBKTNV-1" vertex="1">
          <mxGeometry x="1040" y="600" width="100" height="60" as="geometry" />
        </mxCell>
        <mxCell id="9OOohbVVuucm2zmM9hxW-37" style="edgeStyle=orthogonalEdgeStyle;rounded=0;orthogonalLoop=1;jettySize=auto;html=1;startArrow=diamondThin;startFill=0;endArrow=none;endFill=0;" parent="WIyWlLk6GJQsqaUBKTNV-1" source="9OOohbVVuucm2zmM9hxW-35" target="9OOohbVVuucm2zmM9hxW-34" edge="1">
          <mxGeometry relative="1" as="geometry" />
        </mxCell>
        <mxCell id="Q86aXCvyrEORFELIP6Jt-34" value="0...n" style="edgeLabel;html=1;align=center;verticalAlign=middle;resizable=0;points=[];" parent="9OOohbVVuucm2zmM9hxW-37" vertex="1" connectable="0">
          <mxGeometry x="0.6857" y="-1" relative="1" as="geometry">
            <mxPoint x="11" y="-4" as="offset" />
          </mxGeometry>
        </mxCell>
        <mxCell id="9OOohbVVuucm2zmM9hxW-39" style="edgeStyle=orthogonalEdgeStyle;rounded=0;orthogonalLoop=1;jettySize=auto;html=1;dashed=1;startArrow=diamondThin;startFill=0;endArrow=none;endFill=0;" parent="WIyWlLk6GJQsqaUBKTNV-1" source="9OOohbVVuucm2zmM9hxW-35" target="5-eGZLtxOwIWoKAD2tOT-14" edge="1">
          <mxGeometry relative="1" as="geometry">
            <Array as="points">
              <mxPoint x="1090" y="803" />
              <mxPoint x="60" y="803" />
              <mxPoint x="60" y="310" />
            </Array>
          </mxGeometry>
        </mxCell>
        <mxCell id="9OOohbVVuucm2zmM9hxW-40" value="1...1" style="edgeLabel;html=1;align=center;verticalAlign=middle;resizable=0;points=[];" parent="9OOohbVVuucm2zmM9hxW-39" connectable="0" vertex="1">
          <mxGeometry x="0.9648" y="-2" relative="1" as="geometry">
            <mxPoint x="15" y="-12" as="offset" />
          </mxGeometry>
        </mxCell>
        <mxCell id="9OOohbVVuucm2zmM9hxW-35" value="RaffleBid" style="swimlane;fontStyle=1;align=center;verticalAlign=middle;childLayout=stackLayout;horizontal=1;startSize=29;horizontalStack=0;resizeParent=1;resizeParentMax=0;resizeLast=0;collapsible=0;marginBottom=0;html=1;" parent="WIyWlLk6GJQsqaUBKTNV-1" vertex="1">
          <mxGeometry x="1040" y="730" width="100" height="60" as="geometry" />
        </mxCell>
        <mxCell id="Q86aXCvyrEORFELIP6Jt-7" value="ShopPermission" style="swimlane;fontStyle=1;align=center;verticalAlign=middle;childLayout=stackLayout;horizontal=1;startSize=29;horizontalStack=0;resizeParent=1;resizeParentMax=0;resizeLast=0;collapsible=0;marginBottom=0;html=1;whiteSpace=wrap;" parent="WIyWlLk6GJQsqaUBKTNV-1" vertex="1">
          <mxGeometry x="1117" y="270" width="109" height="55" as="geometry" />
        </mxCell>
        <mxCell id="Q86aXCvyrEORFELIP6Jt-12" style="edgeStyle=orthogonalEdgeStyle;rounded=0;orthogonalLoop=1;jettySize=auto;html=1;endArrow=none;endFill=0;startArrow=diamondThin;startFill=0;" parent="WIyWlLk6GJQsqaUBKTNV-1" source="3amuEZa6ZCUIwLxiYFz3-26" target="Q86aXCvyrEORFELIP6Jt-7" edge="1">
          <mxGeometry relative="1" as="geometry" />
        </mxCell>
        <mxCell id="Q86aXCvyrEORFELIP6Jt-13" value="0...n" style="edgeLabel;html=1;align=center;verticalAlign=middle;resizable=0;points=[];" parent="Q86aXCvyrEORFELIP6Jt-12" vertex="1" connectable="0">
          <mxGeometry x="-0.7905" y="-1" relative="1" as="geometry">
            <mxPoint x="86" y="-75" as="offset" />
          </mxGeometry>
        </mxCell>
        <mxCell id="Q86aXCvyrEORFELIP6Jt-15" style="edgeStyle=orthogonalEdgeStyle;rounded=0;orthogonalLoop=1;jettySize=auto;html=1;endArrow=diamondThin;endFill=1;" parent="WIyWlLk6GJQsqaUBKTNV-1" source="3amuEZa6ZCUIwLxiYFz3-3" target="3amuEZa6ZCUIwLxiYFz3-3" edge="1">
          <mxGeometry relative="1" as="geometry">
            <Array as="points">
              <mxPoint x="1066" y="346" />
              <mxPoint x="1110" y="346" />
              <mxPoint x="1110" y="382" />
            </Array>
          </mxGeometry>
        </mxCell>
        <mxCell id="Q86aXCvyrEORFELIP6Jt-16" value="0...n" style="edgeLabel;html=1;align=center;verticalAlign=middle;resizable=0;points=[];" parent="Q86aXCvyrEORFELIP6Jt-15" vertex="1" connectable="0">
          <mxGeometry x="-0.0391" y="-2" relative="1" as="geometry">
            <mxPoint x="-28" y="8" as="offset" />
          </mxGeometry>
        </mxCell>
        <mxCell id="Q86aXCvyrEORFELIP6Jt-17" value="UserPermission" style="swimlane;fontStyle=1;align=center;verticalAlign=middle;childLayout=stackLayout;horizontal=1;startSize=29;horizontalStack=0;resizeParent=1;resizeParentMax=0;resizeLast=0;collapsible=0;marginBottom=0;html=1;" parent="WIyWlLk6GJQsqaUBKTNV-1" vertex="1">
          <mxGeometry x="324" y="62" width="101" height="60" as="geometry" />
        </mxCell>
        <mxCell id="Q86aXCvyrEORFELIP6Jt-22" style="edgeStyle=orthogonalEdgeStyle;rounded=0;orthogonalLoop=1;jettySize=auto;html=1;endArrow=none;endFill=0;startArrow=diamondThin;startFill=0;dashed=1;" parent="WIyWlLk6GJQsqaUBKTNV-1" source="Q86aXCvyrEORFELIP6Jt-21" target="5-eGZLtxOwIWoKAD2tOT-10" edge="1">
          <mxGeometry relative="1" as="geometry">
            <Array as="points">
              <mxPoint x="710" y="333" />
              <mxPoint x="710" y="171" />
            </Array>
          </mxGeometry>
        </mxCell>
        <mxCell id="Q86aXCvyrEORFELIP6Jt-23" value="1...1" style="edgeLabel;html=1;align=center;verticalAlign=middle;resizable=0;points=[];" parent="Q86aXCvyrEORFELIP6Jt-22" vertex="1" connectable="0">
          <mxGeometry x="-0.9703" relative="1" as="geometry">
            <mxPoint x="-126" y="-151" as="offset" />
          </mxGeometry>
        </mxCell>
        <mxCell id="Q86aXCvyrEORFELIP6Jt-21" value="Comment" style="swimlane;fontStyle=1;align=center;verticalAlign=middle;childLayout=stackLayout;horizontal=1;startSize=29;horizontalStack=0;resizeParent=1;resizeParentMax=0;resizeLast=0;collapsible=0;marginBottom=0;html=1;" parent="WIyWlLk6GJQsqaUBKTNV-1" vertex="1">
          <mxGeometry x="750" y="294" width="180" height="55" as="geometry" />
        </mxCell>
        <mxCell id="Q86aXCvyrEORFELIP6Jt-28" value="- subComments: Comment[]" style="text;strokeColor=none;fillColor=none;align=left;verticalAlign=top;spacingLeft=4;spacingRight=4;overflow=hidden;rotatable=0;points=[[0,0.5],[1,0.5]];portConstraint=eastwest;" parent="Q86aXCvyrEORFELIP6Jt-21" vertex="1">
          <mxGeometry y="29" width="180" height="26" as="geometry" />
        </mxCell>
        <mxCell id="Q86aXCvyrEORFELIP6Jt-26" style="edgeStyle=orthogonalEdgeStyle;rounded=0;orthogonalLoop=1;jettySize=auto;html=1;exitX=0.75;exitY=0;exitDx=0;exitDy=0;endArrow=diamondThin;endFill=1;" parent="WIyWlLk6GJQsqaUBKTNV-1" source="Q86aXCvyrEORFELIP6Jt-21" target="Q86aXCvyrEORFELIP6Jt-21" edge="1">
          <mxGeometry relative="1" as="geometry">
            <Array as="points">
              <mxPoint x="909" y="294" />
              <mxPoint x="909" y="277" />
              <mxPoint x="942" y="277" />
              <mxPoint x="942" y="322" />
            </Array>
          </mxGeometry>
        </mxCell>
        <mxCell id="Q86aXCvyrEORFELIP6Jt-27" value="0...n" style="edgeLabel;html=1;align=center;verticalAlign=middle;resizable=0;points=[];" parent="Q86aXCvyrEORFELIP6Jt-26" vertex="1" connectable="0">
          <mxGeometry x="-0.0893" relative="1" as="geometry">
            <mxPoint x="17" y="56" as="offset" />
          </mxGeometry>
        </mxCell>
        <mxCell id="nCJjTWHosiA9wSOgqE18-0" value="" style="endArrow=none;html=1;rounded=0;endFill=0;startArrow=diamondThin;startFill=1;entryX=0.153;entryY=0.03;entryDx=0;entryDy=0;entryPerimeter=0;" edge="1" parent="WIyWlLk6GJQsqaUBKTNV-1" target="3amuEZa6ZCUIwLxiYFz3-43">
          <mxGeometry relative="1" as="geometry">
            <mxPoint x="432" y="576" as="sourcePoint" />
            <mxPoint x="432" y="673" as="targetPoint" />
          </mxGeometry>
        </mxCell>
        <mxCell id="nCJjTWHosiA9wSOgqE18-1" value="0..n" style="edgeLabel;resizable=0;html=1;align=center;verticalAlign=middle;" connectable="0" vertex="1" parent="nCJjTWHosiA9wSOgqE18-0">
          <mxGeometry relative="1" as="geometry">
            <mxPoint x="-19" y="-39" as="offset" />
          </mxGeometry>
        </mxCell>
        <mxCell id="nCJjTWHosiA9wSOgqE18-2" value="payment&lt;br&gt;service" style="edgeLabel;resizable=0;html=1;align=left;verticalAlign=bottom;" connectable="0" vertex="1" parent="nCJjTWHosiA9wSOgqE18-0">
          <mxGeometry x="-1" relative="1" as="geometry">
            <mxPoint x="2" y="29" as="offset" />
          </mxGeometry>
        </mxCell>
        <mxCell id="nCJjTWHosiA9wSOgqE18-3" value="1" style="edgeLabel;resizable=0;html=1;align=right;verticalAlign=bottom;" connectable="0" vertex="1" parent="nCJjTWHosiA9wSOgqE18-0">
          <mxGeometry x="1" relative="1" as="geometry">
            <mxPoint x="-5" y="-2" as="offset" />
          </mxGeometry>
        </mxCell>
        <mxCell id="nCJjTWHosiA9wSOgqE18-4" value="" style="endArrow=none;html=1;rounded=0;entryX=0.705;entryY=0;entryDx=0;entryDy=0;entryPerimeter=0;endFill=0;startArrow=diamondThin;startFill=1;" edge="1" parent="WIyWlLk6GJQsqaUBKTNV-1" target="3amuEZa6ZCUIwLxiYFz3-43">
          <mxGeometry relative="1" as="geometry">
            <mxPoint x="508" y="575" as="sourcePoint" />
            <mxPoint x="512" y="670" as="targetPoint" />
          </mxGeometry>
        </mxCell>
        <mxCell id="nCJjTWHosiA9wSOgqE18-5" value="0..n" style="edgeLabel;resizable=0;html=1;align=center;verticalAlign=middle;" connectable="0" vertex="1" parent="nCJjTWHosiA9wSOgqE18-4">
          <mxGeometry relative="1" as="geometry">
            <mxPoint x="-16" y="-42" as="offset" />
          </mxGeometry>
        </mxCell>
        <mxCell id="nCJjTWHosiA9wSOgqE18-6" value="supplier&lt;br&gt;service" style="edgeLabel;resizable=0;html=1;align=left;verticalAlign=bottom;" connectable="0" vertex="1" parent="nCJjTWHosiA9wSOgqE18-4">
          <mxGeometry x="-1" relative="1" as="geometry">
            <mxPoint x="1" y="32" as="offset" />
          </mxGeometry>
        </mxCell>
        <mxCell id="nCJjTWHosiA9wSOgqE18-7" value="1" style="edgeLabel;resizable=0;html=1;align=right;verticalAlign=bottom;" connectable="0" vertex="1" parent="nCJjTWHosiA9wSOgqE18-4">
          <mxGeometry x="1" relative="1" as="geometry">
            <mxPoint x="-5" as="offset" />
          </mxGeometry>
        </mxCell>
      </root>
    </mxGraphModel>
  </diagram>
</mxfile>
